<svg width="259" height="88" viewBox="0 0 259 88" fill="none" xmlns="http://www.w3.org/2000/svg">
<path d="M56.814 29.276C57.03 36.884 56.742 43.676 55.95 49.652C55.734 51.356 55.446 53.036 55.086 54.692C54.75 56.372 54.342 57.956 53.862 59.444C53.382 60.956 52.818 62.36 52.17 63.656C51.546 64.952 50.814 66.068 49.974 67.004C49.158 67.94 48.234 68.672 47.202 69.2C46.194 69.752 45.066 70.028 43.818 70.028C43.386 70.028 42.93 69.92 42.45 69.704C41.97 69.512 41.514 69.26 41.082 68.948C40.674 68.636 40.326 68.288 40.038 67.904C39.774 67.544 39.63 67.208 39.606 66.896C39.606 66.584 39.762 66.32 40.074 66.104C40.41 65.912 40.974 65.816 41.766 65.816C42.726 65.816 43.59 65.516 44.358 64.916C45.15 64.34 45.846 63.524 46.446 62.468C47.07 61.436 47.622 60.224 48.102 58.832C48.582 57.44 48.99 55.928 49.326 54.296C49.686 52.688 49.986 51.008 50.226 49.256C50.466 47.504 50.67 45.752 50.838 44C50.286 45.08 49.674 46.208 49.002 47.384C48.33 48.56 47.622 49.628 46.878 50.588C46.158 51.548 45.414 52.34 44.646 52.964C43.902 53.588 43.182 53.9 42.486 53.9C42.03 53.9 41.442 53.732 40.722 53.396C40.002 53.06 39.294 52.46 38.598 51.596C37.902 50.732 37.302 49.568 36.798 48.104C36.294 46.616 36.042 44.732 36.042 42.452C36.042 41.732 36.078 40.88 36.15 39.896C36.198 38.912 36.258 37.7 36.33 36.26C36.378 34.82 36.438 33.104 36.51 31.112C36.558 29.096 36.582 26.72 36.582 23.984C36.582 23.456 36.522 22.94 36.402 22.436C36.282 21.932 36.222 21.488 36.222 21.104C36.198 20.72 36.306 20.42 36.546 20.204C36.762 19.964 37.218 19.844 37.914 19.844C38.274 19.844 38.73 19.952 39.282 20.168C39.858 20.384 40.398 20.708 40.902 21.14C41.43 21.572 41.874 22.112 42.234 22.76C42.618 23.408 42.81 24.164 42.81 25.028C42.81 25.628 42.774 26.48 42.702 27.584C42.654 28.688 42.582 29.948 42.486 31.364C42.39 32.756 42.282 34.244 42.162 35.828C42.066 37.412 41.97 38.984 41.874 40.544C41.802 42.104 41.742 43.604 41.694 45.044C41.67 46.46 41.67 47.72 41.694 48.824C41.742 49.928 41.826 50.804 41.946 51.452C42.09 52.1 42.294 52.424 42.558 52.424C43.062 52.424 43.674 52.016 44.394 51.2C45.138 50.36 45.906 49.316 46.698 48.068C47.49 46.82 48.27 45.476 49.038 44.036C49.83 42.596 50.538 41.264 51.162 40.04C51.258 38.408 51.33 36.86 51.378 35.396C51.426 33.908 51.462 32.588 51.486 31.436C51.51 30.26 51.522 29.264 51.522 28.448C51.522 27.632 51.522 27.08 51.522 26.792C51.522 26.552 51.498 26.288 51.45 26C51.402 25.712 51.402 25.448 51.45 25.208C51.498 24.968 51.618 24.776 51.81 24.632C52.002 24.464 52.338 24.38 52.818 24.38C53.274 24.38 53.742 24.488 54.222 24.704C54.702 24.896 55.134 25.196 55.518 25.604C55.902 26.012 56.214 26.528 56.454 27.152C56.694 27.752 56.814 28.46 56.814 29.276ZM67.3578 33.884C67.8858 33.884 68.3778 34.016 68.8338 34.28C69.2898 34.544 69.6858 34.976 70.0218 35.576C70.3578 36.176 70.6218 36.956 70.8138 37.916C71.0298 38.852 71.1378 40.004 71.1378 41.372C71.1378 42.74 71.0178 44.132 70.7778 45.548C70.5378 46.94 70.1538 48.2 69.6258 49.328C69.0978 50.456 68.4138 51.38 67.5738 52.1C66.7578 52.796 65.7618 53.144 64.5858 53.144C63.5298 53.144 62.6538 52.88 61.9578 52.352C61.2858 51.8 60.7458 51.116 60.3378 50.3C59.9538 49.46 59.6898 48.548 59.5458 47.564C59.4018 46.556 59.3298 45.596 59.3298 44.684C59.3298 43.844 59.3778 42.98 59.4738 42.092C59.5698 41.18 59.7378 40.34 59.9778 39.572C60.2178 38.804 60.5538 38.144 60.9858 37.592C61.4178 37.04 61.9578 36.692 62.6058 36.548C62.8218 35.948 63.1098 35.468 63.4698 35.108C63.8298 34.748 64.2258 34.484 64.6578 34.316C65.0898 34.124 65.5338 34.004 65.9898 33.956C66.4698 33.908 66.9258 33.884 67.3578 33.884ZM66.3858 51.236C66.7698 51.236 67.1418 50.864 67.5018 50.12C67.8618 49.376 68.1738 48.44 68.4378 47.312C68.7018 46.184 68.8938 44.972 69.0138 43.676C69.1578 42.356 69.1938 41.132 69.1218 40.004C69.0498 38.876 68.8578 37.94 68.5458 37.196C68.2338 36.452 67.7538 36.08 67.1058 36.08C66.8178 36.08 66.6138 36.284 66.4938 36.692C66.3738 37.1 66.2658 37.58 66.1698 38.132C66.0738 38.66 65.9538 39.2 65.8098 39.752C65.6658 40.304 65.4378 40.724 65.1258 41.012C65.1258 42.092 65.0898 43.232 65.0178 44.432C64.9458 45.632 64.9098 46.736 64.9098 47.744C64.9338 48.752 65.0418 49.592 65.2338 50.264C65.4498 50.912 65.8338 51.236 66.3858 51.236ZM85.922 47.348C85.922 48.404 85.982 49.28 86.102 49.976C86.246 50.648 86.354 51.188 86.426 51.596C86.522 51.98 86.546 52.256 86.498 52.424C86.45 52.592 86.246 52.676 85.886 52.676C85.31 52.676 84.722 52.58 84.122 52.388C83.546 52.172 83.018 51.836 82.538 51.38C82.082 50.924 81.698 50.336 81.386 49.616C81.098 48.896 80.954 48.032 80.954 47.024C80.954 46.76 80.954 46.484 80.954 46.196C80.954 45.908 80.966 45.596 80.99 45.26L78.254 52.136C78.326 52.328 78.386 52.496 78.434 52.64C78.506 52.784 78.542 52.952 78.542 53.144C78.542 53.312 78.41 53.42 78.146 53.468C77.882 53.516 77.546 53.48 77.138 53.36C76.73 53.264 76.298 53.084 75.842 52.82C75.386 52.532 74.954 52.136 74.546 51.632C74.138 51.104 73.802 50.456 73.538 49.688C73.274 48.92 73.142 48.008 73.142 46.952C73.142 45.968 73.19 44.888 73.286 43.712C73.382 42.512 73.478 41.36 73.574 40.256C73.694 39.152 73.802 38.168 73.898 37.304C73.994 36.44 74.042 35.852 74.042 35.54C74.042 35.324 73.994 35.108 73.898 34.892C73.826 34.652 73.766 34.436 73.718 34.244C73.694 34.052 73.73 33.896 73.826 33.776C73.946 33.656 74.21 33.596 74.618 33.596C75.098 33.596 75.578 33.668 76.058 33.812C76.562 33.932 77.018 34.1 77.426 34.316C77.834 34.532 78.17 34.784 78.434 35.072C78.698 35.36 78.83 35.66 78.83 35.972C78.83 36.308 78.758 36.812 78.614 37.484C78.47 38.156 78.314 38.96 78.146 39.896C77.978 40.832 77.822 41.888 77.678 43.064C77.534 44.216 77.462 45.428 77.462 46.7C77.462 47.78 77.498 48.656 77.57 49.328C77.642 50 77.738 50.552 77.858 50.984C78.026 50.576 78.254 50.036 78.542 49.364C78.83 48.692 79.118 47.972 79.406 47.204C79.718 46.412 80.03 45.608 80.342 44.792C80.654 43.952 80.918 43.172 81.134 42.452C81.182 41.78 81.218 41.18 81.242 40.652C81.266 40.124 81.278 39.764 81.278 39.572C81.278 39.236 81.338 38.888 81.458 38.528C81.578 38.168 81.854 37.988 82.286 37.988C82.502 37.988 82.838 38.012 83.294 38.06C83.774 38.108 84.242 38.216 84.698 38.384C85.178 38.528 85.598 38.744 85.958 39.032C86.318 39.296 86.498 39.644 86.498 40.076C86.498 40.364 86.462 40.664 86.39 40.976C86.342 41.264 86.282 41.66 86.21 42.164C86.138 42.668 86.066 43.328 85.994 44.144C85.946 44.96 85.922 46.028 85.922 47.348ZM104.93 35.216C104.93 35.504 104.882 35.936 104.786 36.512C104.69 37.088 104.57 37.748 104.426 38.492C104.306 39.236 104.162 40.028 103.994 40.868C103.85 41.708 103.706 42.524 103.562 43.316C103.442 44.108 103.334 44.852 103.238 45.548C103.142 46.244 103.094 46.82 103.094 47.276C103.094 48.644 103.13 49.688 103.202 50.408C103.274 51.104 103.346 51.632 103.418 51.992C103.514 52.352 103.598 52.616 103.67 52.784C103.742 52.952 103.778 53.168 103.778 53.432C103.778 53.696 103.49 53.828 102.914 53.828C102.362 53.828 101.738 53.624 101.042 53.216C100.37 52.808 99.7457 52.16 99.1697 51.272C98.6177 50.36 98.3417 49.148 98.3417 47.636C98.3417 46.628 98.3777 45.596 98.4497 44.54C98.5457 43.46 98.6537 42.416 98.7737 41.408C98.8937 40.376 99.0257 39.404 99.1697 38.492C99.3377 37.58 99.4817 36.776 99.6017 36.08C99.3377 36.752 99.0377 37.58 98.7017 38.564C98.3897 39.524 98.0537 40.568 97.6937 41.696C97.3577 42.8 97.0097 43.928 96.6497 45.08C96.3137 46.208 95.9777 47.276 95.6417 48.284C95.3057 49.268 94.9817 50.144 94.6697 50.912C94.3817 51.68 94.1177 52.232 93.8777 52.568C93.8537 52.736 93.7577 52.856 93.5897 52.928H93.4817C93.3377 52.976 93.1937 53 93.0497 53C92.1857 53 91.4657 52.7 90.8897 52.1C90.3137 51.476 89.8457 50.708 89.4857 49.796C89.1257 48.884 88.8617 47.888 88.6937 46.808C88.5257 45.728 88.4057 44.72 88.3337 43.784C88.2857 42.824 88.2617 42.02 88.2617 41.372C88.2857 40.7 88.2977 40.316 88.2977 40.22C88.2977 40.052 88.2857 39.944 88.2617 39.896C88.2137 39.824 88.1657 39.764 88.1177 39.716C88.0457 39.644 87.9977 39.584 87.9737 39.536C87.9257 39.464 87.9017 39.344 87.9017 39.176C87.9017 39.008 88.1777 38.876 88.7297 38.78C89.2817 38.684 89.8817 38.672 90.5297 38.744C91.2017 38.792 91.8137 38.96 92.3657 39.248C92.9177 39.512 93.1937 39.932 93.1937 40.508C93.1937 40.7 93.1817 41.06 93.1577 41.588C93.1577 42.092 93.1457 42.656 93.1217 43.28C93.0977 43.88 93.0737 44.468 93.0497 45.044C93.0497 45.62 93.0497 46.052 93.0497 46.34C93.0497 46.82 93.0617 47.264 93.0857 47.672C93.1337 48.08 93.1817 48.464 93.2297 48.824C93.4457 48.056 93.7097 47.18 94.0217 46.196C94.3577 45.212 94.7057 44.192 95.0657 43.136C95.4497 42.056 95.8577 40.988 96.2897 39.932C96.7217 38.876 97.1537 37.904 97.5857 37.016C98.0417 36.104 98.4977 35.324 98.9537 34.676C99.4097 34.028 99.8537 33.584 100.286 33.344C100.334 33.296 100.43 33.248 100.574 33.2C100.646 33.176 100.706 33.164 100.754 33.164C100.826 33.14 100.898 33.128 100.97 33.128C101.09 33.128 101.198 33.128 101.294 33.128C101.414 33.128 101.534 33.14 101.654 33.164C102.206 33.164 102.542 33.224 102.662 33.344C103.238 33.512 103.754 33.764 104.21 34.1C104.69 34.412 104.93 34.784 104.93 35.216ZM122.031 56.6C123.135 57.104 123.987 57.8 124.587 58.688C125.211 59.576 125.643 60.488 125.883 61.424C126.147 62.36 126.255 63.248 126.207 64.088C126.183 64.928 126.075 65.564 125.883 65.996C125.499 66.812 124.767 67.688 123.687 68.624C122.631 69.584 121.359 70.508 119.871 71.396C118.407 72.308 116.787 73.148 115.011 73.916C113.259 74.684 111.495 75.284 109.719 75.716C107.943 76.148 106.227 76.364 104.571 76.364C102.915 76.388 101.451 76.1 100.179 75.5C99.7714 75.308 99.2554 74.948 98.6314 74.42C98.0074 73.892 97.4194 73.28 96.8674 72.584C96.2914 71.912 95.8474 71.192 95.5354 70.424C95.1994 69.68 95.1394 68.996 95.3554 68.372C95.5954 67.7 96.0634 67.112 96.7594 66.608C97.4554 66.104 98.2594 65.684 99.1714 65.348C100.059 65.036 100.995 64.784 101.979 64.592C102.939 64.4 103.815 64.268 104.607 64.196C105.399 64.148 106.035 64.16 106.515 64.232C107.019 64.304 107.235 64.412 107.163 64.556C107.091 64.7 106.839 64.832 106.407 64.952C105.999 65.072 105.495 65.192 104.895 65.312C104.295 65.456 103.635 65.624 102.915 65.816C102.195 66.008 101.499 66.248 100.827 66.536C100.155 66.824 99.5434 67.184 98.9914 67.616C98.4154 68.048 97.9834 68.564 97.6954 69.164C97.3834 69.812 97.4794 70.328 97.9834 70.712C98.4874 71.12 99.2554 71.408 100.287 71.576C101.319 71.768 102.567 71.84 104.031 71.792C105.471 71.744 106.995 71.588 108.603 71.324C110.211 71.084 111.831 70.736 113.463 70.28C115.119 69.824 116.655 69.284 118.071 68.66C119.487 68.036 120.723 67.316 121.779 66.5C122.835 65.684 123.591 64.796 124.047 63.836C124.335 63.212 124.347 62.552 124.083 61.856C123.819 61.16 123.195 60.584 122.211 60.128C120.891 59.504 119.475 59.144 117.963 59.048C116.475 58.952 115.047 58.988 113.679 59.156C113.559 59.348 113.451 59.444 113.355 59.444C113.211 59.444 113.091 59.372 112.995 59.228C112.179 59.348 111.411 59.48 110.691 59.624C109.971 59.792 109.335 59.936 108.783 60.056C108.231 60.176 107.775 60.272 107.415 60.344C107.055 60.416 106.827 60.428 106.731 60.38C106.587 60.308 106.431 60.152 106.263 59.912C106.095 59.696 105.951 59.408 105.831 59.048C105.687 58.712 105.615 58.34 105.615 57.932C105.591 57.524 105.675 57.116 105.867 56.708C106.179 56.06 106.923 55.604 108.099 55.34C109.299 55.076 110.667 54.944 112.203 54.944V54.728C112.203 54.488 112.203 54.224 112.203 53.936C112.203 53.672 112.215 53.372 112.239 53.036H112.203C111.579 53.036 110.907 52.88 110.187 52.568C109.467 52.232 108.807 51.704 108.207 50.984C107.607 50.264 107.103 49.34 106.695 48.212C106.311 47.084 106.119 45.716 106.119 44.108C106.119 43.268 106.251 42.38 106.515 41.444C106.779 40.484 107.115 39.548 107.523 38.636C107.931 37.7 108.387 36.8 108.891 35.936C109.419 35.072 109.935 34.316 110.439 33.668C110.967 33.02 111.459 32.504 111.915 32.12C112.395 31.736 112.791 31.544 113.103 31.544C113.871 31.544 114.483 31.688 114.939 31.976C115.419 32.24 115.779 32.564 116.019 32.948C116.283 33.332 116.451 33.716 116.523 34.1C116.595 34.46 116.631 34.736 116.631 34.928C116.631 35.072 116.463 35.276 116.127 35.54C115.791 35.804 115.371 36.176 114.867 36.656C114.363 37.112 113.811 37.676 113.211 38.348C112.611 38.996 112.059 39.776 111.555 40.688C111.051 41.576 110.631 42.608 110.295 43.784C109.959 44.936 109.791 46.244 109.791 47.708C109.791 49.196 110.043 50.216 110.547 50.768C111.051 51.32 111.651 51.5 112.347 51.308C112.371 50.78 112.407 50.264 112.455 49.76C112.527 49.232 112.587 48.776 112.635 48.392C112.683 47.984 112.743 47.66 112.815 47.42C112.887 47.18 112.959 47.06 113.031 47.06C113.439 47.06 113.775 47.288 114.039 47.744C114.327 48.2 114.555 48.776 114.723 49.472C115.515 48.464 116.199 47.144 116.775 45.512C117.351 43.856 117.639 41.948 117.639 39.788C117.639 39.572 117.759 39.452 117.999 39.428C118.239 39.38 118.503 39.44 118.791 39.608C119.103 39.752 119.379 40.028 119.619 40.436C119.859 40.82 119.979 41.348 119.979 42.02C119.979 42.548 119.859 43.268 119.619 44.18C119.403 45.068 119.079 46.004 118.647 46.988C118.215 47.948 117.687 48.896 117.063 49.832C116.439 50.744 115.731 51.488 114.939 52.064C114.939 52.472 114.915 52.928 114.867 53.432C114.819 53.96 114.759 54.5 114.687 55.052C115.431 55.124 116.163 55.208 116.883 55.304C117.603 55.4 118.287 55.52 118.935 55.664C119.583 55.808 120.171 55.952 120.699 56.096C121.227 56.264 121.671 56.432 122.031 56.6Z" fill="#FF414D"/>
<path d="M123.629 28.808C123.629 28.592 123.593 28.364 123.521 28.124C123.449 27.884 123.425 27.668 123.449 27.476C123.473 27.284 123.581 27.128 123.773 27.008C123.965 26.864 124.325 26.792 124.853 26.792C125.645 26.792 126.365 26.924 127.013 27.188C127.685 27.452 128.261 27.776 128.741 28.16C129.245 28.52 129.629 28.904 129.893 29.312C130.157 29.72 130.289 30.056 130.289 30.32C130.289 30.464 130.241 30.896 130.145 31.616C130.049 32.336 129.917 33.236 129.749 34.316C129.605 35.396 129.437 36.62 129.245 37.988C129.077 39.332 128.909 40.7 128.741 42.092C128.597 43.46 128.477 44.804 128.381 46.124C128.285 47.42 128.237 48.584 128.237 49.616C128.261 50.624 128.333 51.44 128.453 52.064C128.597 52.688 128.825 53 129.137 53C129.665 53 130.361 52.7 131.225 52.1C132.113 51.5 133.061 50.636 134.069 49.508C135.077 48.356 136.097 46.964 137.129 45.332C138.161 43.676 139.097 41.804 139.937 39.716C140.777 37.604 141.461 35.3 141.989 32.804C142.517 30.284 142.781 27.584 142.781 24.704C142.781 23.552 142.541 22.556 142.061 21.716C141.581 20.876 140.993 20.192 140.297 19.664C139.601 19.112 138.857 18.704 138.065 18.44C137.273 18.176 136.553 18.044 135.905 18.044C133.769 18.044 131.909 18.272 130.325 18.728C128.741 19.16 127.373 19.724 126.221 20.42C125.093 21.092 124.145 21.836 123.377 22.652C122.633 23.444 122.021 24.2 121.541 24.92C121.061 25.64 120.701 26.276 120.461 26.828C120.197 27.356 120.005 27.68 119.885 27.8C119.693 27.992 119.345 28.16 118.841 28.304C118.313 28.424 117.785 28.508 117.257 28.556C116.705 28.58 116.225 28.556 115.817 28.484C115.385 28.388 115.169 28.22 115.169 27.98C115.169 27.668 115.373 27.164 115.781 26.468C116.165 25.748 116.741 24.968 117.509 24.128C118.253 23.264 119.177 22.376 120.281 21.464C121.385 20.552 122.645 19.724 124.061 18.98C125.501 18.236 127.073 17.624 128.777 17.144C130.481 16.664 132.329 16.424 134.321 16.424C134.849 16.424 135.569 16.436 136.481 16.46C137.417 16.484 138.425 16.604 139.505 16.82C140.585 17.012 141.677 17.336 142.781 17.792C143.885 18.248 144.881 18.908 145.769 19.772C146.681 20.636 147.413 21.752 147.965 23.12C148.541 24.464 148.829 26.132 148.829 28.124C148.829 30.116 148.589 32.18 148.109 34.316C147.629 36.428 146.957 38.504 146.093 40.544C145.229 42.56 144.197 44.48 142.997 46.304C141.797 48.104 140.465 49.688 139.001 51.056C137.537 52.424 135.965 53.504 134.285 54.296C132.629 55.088 130.913 55.484 129.137 55.484C127.817 55.484 126.725 55.124 125.861 54.404C125.021 53.708 124.349 52.772 123.845 51.596C123.341 50.396 122.981 49.04 122.765 47.528C122.573 46.016 122.465 44.456 122.441 42.848C122.441 41.24 122.501 39.644 122.621 38.06C122.741 36.476 122.873 35.036 123.017 33.74C123.161 32.444 123.293 31.364 123.413 30.5C123.557 29.612 123.629 29.048 123.629 28.808ZM165.47 42.092C165.542 41.924 165.626 41.816 165.722 41.768C165.818 41.696 165.914 41.684 166.01 41.732C166.106 41.756 166.178 41.828 166.226 41.948C166.274 42.068 166.262 42.224 166.19 42.416C166.142 42.536 166.046 42.86 165.902 43.388C165.758 43.892 165.542 44.504 165.254 45.224C164.99 45.92 164.642 46.664 164.21 47.456C163.802 48.248 163.31 48.98 162.734 49.652C162.158 50.324 161.486 50.876 160.718 51.308C159.974 51.74 159.134 51.956 158.198 51.956C156.95 51.956 155.822 51.704 154.814 51.2C153.83 50.696 152.99 50.048 152.294 49.256C151.622 48.464 151.106 47.6 150.746 46.664C150.386 45.704 150.206 44.768 150.206 43.856C150.206 42.68 150.338 41.552 150.602 40.472C150.866 39.368 151.19 38.36 151.574 37.448C151.958 36.536 152.366 35.744 152.798 35.072C153.254 34.4 153.662 33.896 154.022 33.56C154.382 33.248 154.85 33.02 155.426 32.876C156.002 32.708 156.578 32.624 157.154 32.624C157.754 32.6 158.318 32.624 158.846 32.696C159.374 32.768 159.782 32.876 160.07 33.02C160.622 33.284 161.066 33.8 161.402 34.568C161.762 35.312 161.942 36.188 161.942 37.196C161.942 39.092 161.546 40.532 160.754 41.516C159.962 42.476 158.978 42.956 157.802 42.956C157.37 42.956 156.914 42.908 156.434 42.812C155.978 42.716 155.558 42.608 155.174 42.488C155.102 43.376 155.174 44.252 155.39 45.116C155.606 45.98 155.894 46.748 156.254 47.42C156.638 48.092 157.07 48.644 157.55 49.076C158.054 49.484 158.558 49.688 159.062 49.688C159.83 49.688 160.514 49.52 161.114 49.184C161.714 48.824 162.242 48.38 162.698 47.852C163.178 47.324 163.574 46.748 163.886 46.124C164.222 45.5 164.498 44.912 164.714 44.36C164.954 43.784 165.122 43.292 165.218 42.884C165.338 42.452 165.422 42.188 165.47 42.092ZM158.702 35.72C158.222 35.72 157.79 35.888 157.406 36.224C157.022 36.56 156.686 37.004 156.398 37.556C156.11 38.108 155.87 38.744 155.678 39.464C155.486 40.184 155.342 40.94 155.246 41.732C156.014 42.068 156.674 42.152 157.226 41.984C157.778 41.792 158.234 41.48 158.594 41.048C158.954 40.592 159.218 40.064 159.386 39.464C159.554 38.84 159.638 38.252 159.638 37.7C159.638 37.148 159.554 36.68 159.386 36.296C159.242 35.912 159.014 35.72 158.702 35.72ZM175.017 32.804C175.089 32.54 175.329 32.492 175.737 32.66C176.169 32.804 176.589 33.164 176.997 33.74C177.405 34.316 177.693 35.12 177.861 36.152C178.053 37.184 177.957 38.456 177.573 39.968C177.165 41.48 176.685 42.992 176.133 44.504C175.605 45.992 175.101 47.336 174.621 48.536C174.045 49.952 173.457 51.296 172.857 52.568C172.785 52.808 172.629 52.94 172.389 52.964C172.173 52.964 171.909 52.892 171.597 52.748C171.525 52.868 171.369 52.928 171.129 52.928C170.409 52.928 169.605 52.544 168.717 51.776C167.829 51.008 166.989 49.892 166.197 48.428C165.429 46.94 164.769 45.128 164.217 42.992C163.689 40.832 163.425 38.372 163.425 35.612C163.425 35.444 163.413 35.24 163.389 35C163.341 34.76 163.341 34.532 163.389 34.316C163.413 34.1 163.485 33.92 163.605 33.776C163.749 33.632 164.001 33.56 164.361 33.56C165.609 33.56 166.545 33.884 167.169 34.532C167.817 35.18 168.141 35.96 168.141 36.872C168.141 39.392 168.357 41.6 168.789 43.496C169.245 45.368 169.713 46.964 170.193 48.284C170.457 47.636 170.769 46.892 171.129 46.052C171.513 45.212 171.885 44.372 172.245 43.532C172.629 42.668 172.965 41.852 173.253 41.084C173.565 40.292 173.793 39.62 173.937 39.068C174.297 37.724 174.537 36.692 174.657 35.972C174.801 35.252 174.885 34.7 174.909 34.316C174.957 33.932 174.969 33.656 174.945 33.488C174.921 33.296 174.945 33.068 175.017 32.804ZM178.754 38.096C178.754 36.392 178.97 34.676 179.402 32.948C179.834 31.22 180.434 29.564 181.202 27.98C181.994 26.396 182.93 24.92 184.01 23.552C185.09 22.16 186.266 20.96 187.538 19.952C188.834 18.92 190.202 18.116 191.642 17.54C193.082 16.94 194.558 16.64 196.07 16.64C197.126 16.64 197.966 16.856 198.59 17.288C199.214 17.72 199.658 18.284 199.922 18.98C200.186 19.676 200.306 20.468 200.282 21.356C200.258 22.244 200.126 23.156 199.886 24.092C199.646 25.028 199.322 25.94 198.914 26.828C198.53 27.716 198.11 28.508 197.654 29.204C197.222 29.9 196.778 30.464 196.322 30.896C195.866 31.328 195.458 31.544 195.098 31.544C194.762 31.544 194.618 31.244 194.666 30.644C194.714 30.02 194.846 29.24 195.062 28.304C195.302 27.368 195.566 26.372 195.854 25.316C196.166 24.236 196.394 23.228 196.538 22.292C196.706 21.356 196.742 20.588 196.646 19.988C196.574 19.364 196.262 19.052 195.71 19.052C194.558 19.052 193.382 19.592 192.182 20.672C191.006 21.752 189.926 23.204 188.942 25.028C187.958 26.852 187.154 28.976 186.53 31.4C185.906 33.8 185.594 36.332 185.594 38.996C185.594 41.468 185.774 43.604 186.134 45.404C186.494 47.18 186.926 48.644 187.43 49.796C187.934 50.948 188.462 51.8 189.014 52.352C189.59 52.904 190.094 53.18 190.526 53.18C190.814 53.18 191.114 52.964 191.426 52.532C191.762 52.076 192.098 51.512 192.434 50.84C192.77 50.144 193.094 49.388 193.406 48.572C193.718 47.732 193.994 46.928 194.234 46.16C194.474 45.392 194.666 44.708 194.81 44.108C194.954 43.508 195.026 43.088 195.026 42.848C195.026 42.488 195.206 42.296 195.566 42.272C195.926 42.248 196.322 42.368 196.754 42.632C197.21 42.872 197.618 43.232 197.978 43.712C198.338 44.168 198.518 44.72 198.518 45.368C198.518 45.464 198.47 45.776 198.374 46.304C198.302 46.832 198.146 47.456 197.906 48.176C197.69 48.872 197.39 49.628 197.006 50.444C196.622 51.236 196.13 51.98 195.53 52.676C194.93 53.348 194.21 53.9 193.37 54.332C192.53 54.788 191.546 55.016 190.418 55.016C188.402 55.016 186.65 54.608 185.162 53.792C183.698 53 182.486 51.872 181.526 50.408C180.59 48.92 179.894 47.144 179.438 45.08C178.982 42.992 178.754 40.664 178.754 38.096ZM209.038 33.884C209.566 33.884 210.058 34.016 210.514 34.28C210.97 34.544 211.366 34.976 211.702 35.576C212.038 36.176 212.302 36.956 212.494 37.916C212.71 38.852 212.818 40.004 212.818 41.372C212.818 42.74 212.698 44.132 212.458 45.548C212.218 46.94 211.834 48.2 211.306 49.328C210.778 50.456 210.094 51.38 209.254 52.1C208.438 52.796 207.442 53.144 206.266 53.144C205.21 53.144 204.334 52.88 203.638 52.352C202.966 51.8 202.426 51.116 202.018 50.3C201.634 49.46 201.37 48.548 201.226 47.564C201.082 46.556 201.01 45.596 201.01 44.684C201.01 43.844 201.058 42.98 201.154 42.092C201.25 41.18 201.418 40.34 201.658 39.572C201.898 38.804 202.234 38.144 202.666 37.592C203.097 37.04 203.638 36.692 204.286 36.548C204.502 35.948 204.79 35.468 205.15 35.108C205.51 34.748 205.906 34.484 206.338 34.316C206.77 34.124 207.214 34.004 207.67 33.956C208.15 33.908 208.606 33.884 209.038 33.884ZM208.066 51.236C208.45 51.236 208.822 50.864 209.182 50.12C209.542 49.376 209.854 48.44 210.118 47.312C210.382 46.184 210.574 44.972 210.694 43.676C210.838 42.356 210.874 41.132 210.802 40.004C210.73 38.876 210.538 37.94 210.226 37.196C209.914 36.452 209.434 36.08 208.786 36.08C208.498 36.08 208.294 36.284 208.174 36.692C208.054 37.1 207.946 37.58 207.85 38.132C207.754 38.66 207.634 39.2 207.49 39.752C207.346 40.304 207.118 40.724 206.806 41.012C206.806 42.092 206.77 43.232 206.698 44.432C206.626 45.632 206.59 46.736 206.59 47.744C206.614 48.752 206.722 49.592 206.914 50.264C207.13 50.912 207.514 51.236 208.066 51.236ZM231.598 35.216C231.598 35.504 231.55 35.936 231.454 36.512C231.358 37.088 231.238 37.748 231.094 38.492C230.974 39.236 230.83 40.028 230.662 40.868C230.518 41.708 230.374 42.524 230.23 43.316C230.11 44.108 230.002 44.852 229.906 45.548C229.81 46.244 229.762 46.82 229.762 47.276C229.762 48.644 229.798 49.688 229.87 50.408C229.942 51.104 230.014 51.632 230.086 51.992C230.182 52.352 230.266 52.616 230.338 52.784C230.41 52.952 230.446 53.168 230.446 53.432C230.446 53.696 230.158 53.828 229.582 53.828C229.03 53.828 228.406 53.624 227.71 53.216C227.038 52.808 226.414 52.16 225.838 51.272C225.286 50.36 225.01 49.148 225.01 47.636C225.01 46.628 225.046 45.596 225.118 44.54C225.214 43.46 225.322 42.416 225.442 41.408C225.562 40.376 225.694 39.404 225.838 38.492C226.006 37.58 226.15 36.776 226.27 36.08C226.006 36.752 225.706 37.58 225.37 38.564C225.058 39.524 224.722 40.568 224.362 41.696C224.026 42.8 223.678 43.928 223.318 45.08C222.982 46.208 222.646 47.276 222.31 48.284C221.974 49.268 221.65 50.144 221.338 50.912C221.05 51.68 220.786 52.232 220.546 52.568C220.522 52.736 220.426 52.856 220.258 52.928H220.15C220.006 52.976 219.862 53 219.718 53C218.854 53 218.134 52.7 217.558 52.1C216.982 51.476 216.514 50.708 216.154 49.796C215.794 48.884 215.53 47.888 215.362 46.808C215.194 45.728 215.074 44.72 215.002 43.784C214.954 42.824 214.93 42.02 214.93 41.372C214.954 40.7 214.966 40.316 214.966 40.22C214.966 40.052 214.954 39.944 214.93 39.896C214.882 39.824 214.834 39.764 214.786 39.716C214.714 39.644 214.666 39.584 214.642 39.536C214.594 39.464 214.57 39.344 214.57 39.176C214.57 39.008 214.846 38.876 215.398 38.78C215.95 38.684 216.55 38.672 217.198 38.744C217.87 38.792 218.482 38.96 219.034 39.248C219.586 39.512 219.862 39.932 219.862 40.508C219.862 40.7 219.85 41.06 219.826 41.588C219.826 42.092 219.814 42.656 219.79 43.28C219.766 43.88 219.742 44.468 219.718 45.044C219.718 45.62 219.718 46.052 219.718 46.34C219.718 46.82 219.73 47.264 219.754 47.672C219.802 48.08 219.85 48.464 219.898 48.824C220.114 48.056 220.378 47.18 220.69 46.196C221.026 45.212 221.374 44.192 221.734 43.136C222.118 42.056 222.526 40.988 222.958 39.932C223.39 38.876 223.822 37.904 224.254 37.016C224.71 36.104 225.166 35.324 225.622 34.676C226.078 34.028 226.522 33.584 226.954 33.344C227.002 33.296 227.098 33.248 227.242 33.2C227.314 33.176 227.374 33.164 227.422 33.164C227.494 33.14 227.566 33.128 227.638 33.128C227.758 33.128 227.866 33.128 227.962 33.128C228.082 33.128 228.202 33.14 228.322 33.164C228.874 33.164 229.21 33.224 229.33 33.344C229.906 33.512 230.422 33.764 230.878 34.1C231.358 34.412 231.598 34.784 231.598 35.216Z" fill="#1AA6B7"/>
</svg>
