<svg width="385" height="112" viewBox="0 0 385 112" fill="none" xmlns="http://www.w3.org/2000/svg">
<rect width="385" height="112" fill="white"/>
<path d="M69.3567 28.46C69.7167 41.14 69.2367 52.46 67.9167 62.42C67.5567 65.26 67.0767 68.06 66.4767 70.82C65.9167 73.62 65.2367 76.26 64.4367 78.74C63.6367 81.26 62.6967 83.6 61.6167 85.76C60.5767 87.92 59.3567 89.78 57.9567 91.34C56.5967 92.9 55.0567 94.12 53.3367 95C51.6567 95.92 49.7767 96.38 47.6967 96.38C46.9767 96.38 46.2167 96.2 45.4167 95.84C44.6167 95.52 43.8567 95.1 43.1367 94.58C42.4567 94.06 41.8767 93.48 41.3967 92.84C40.9567 92.24 40.7167 91.68 40.6767 91.16C40.6767 90.64 40.9367 90.2 41.4567 89.84C42.0167 89.52 42.9567 89.36 44.2767 89.36C45.8767 89.36 47.3167 88.86 48.5967 87.86C49.9167 86.9 51.0767 85.54 52.0767 83.78C53.1167 82.06 54.0367 80.04 54.8367 77.72C55.6367 75.4 56.3167 72.88 56.8767 70.16C57.4767 67.48 57.9767 64.68 58.3767 61.76C58.7767 58.84 59.1167 55.92 59.3967 53C58.4767 54.8 57.4567 56.68 56.3367 58.64C55.2167 60.6 54.0367 62.38 52.7967 63.98C51.5967 65.58 50.3567 66.9 49.0767 67.94C47.8367 68.98 46.6367 69.5 45.4767 69.5C44.7167 69.5 43.7367 69.22 42.5367 68.66C41.3367 68.1 40.1567 67.1 38.9967 65.66C37.8367 64.22 36.8367 62.28 35.9967 59.84C35.1567 57.36 34.7367 54.22 34.7367 50.42C34.7367 49.22 34.7967 47.8 34.9167 46.16C34.9967 44.52 35.0967 42.5 35.2167 40.1C35.2967 37.7 35.3967 34.84 35.5167 31.52C35.5967 28.16 35.6367 24.2 35.6367 19.64C35.6367 18.76 35.5367 17.9 35.3367 17.06C35.1367 16.22 35.0367 15.48 35.0367 14.84C34.9967 14.2 35.1767 13.7 35.5767 13.34C35.9367 12.94 36.6967 12.74 37.8567 12.74C38.4567 12.74 39.2167 12.92 40.1367 13.28C41.0967 13.64 41.9967 14.18 42.8367 14.9C43.7167 15.62 44.4567 16.52 45.0567 17.6C45.6967 18.68 46.0167 19.94 46.0167 21.38C46.0167 22.38 45.9567 23.8 45.8367 25.64C45.7567 27.48 45.6367 29.58 45.4767 31.94C45.3167 34.26 45.1367 36.74 44.9367 39.38C44.7767 42.02 44.6167 44.64 44.4567 47.24C44.3367 49.84 44.2367 52.34 44.1567 54.74C44.1167 57.1 44.1167 59.2 44.1567 61.04C44.2367 62.88 44.3767 64.34 44.5767 65.42C44.8167 66.5 45.1567 67.04 45.5967 67.04C46.4367 67.04 47.4567 66.36 48.6567 65C49.8967 63.6 51.1767 61.86 52.4967 59.78C53.8167 57.7 55.1167 55.46 56.3967 53.06C57.7167 50.66 58.8967 48.44 59.9367 46.4C60.0967 43.68 60.2167 41.1 60.2967 38.66C60.3767 36.18 60.4367 33.98 60.4767 32.06C60.5167 30.1 60.5367 28.44 60.5367 27.08C60.5367 25.72 60.5367 24.8 60.5367 24.32C60.5367 23.92 60.4967 23.48 60.4167 23C60.3367 22.52 60.3367 22.08 60.4167 21.68C60.4967 21.28 60.6967 20.96 61.0167 20.72C61.3367 20.44 61.8967 20.3 62.6967 20.3C63.4567 20.3 64.2367 20.48 65.0367 20.84C65.8367 21.16 66.5567 21.66 67.1967 22.34C67.8367 23.02 68.3567 23.88 68.7567 24.92C69.1567 25.92 69.3567 27.1 69.3567 28.46ZM86.9297 36.14C87.8097 36.14 88.6297 36.36 89.3897 36.8C90.1497 37.24 90.8097 37.96 91.3697 38.96C91.9297 39.96 92.3697 41.26 92.6897 42.86C93.0497 44.42 93.2297 46.34 93.2297 48.62C93.2297 50.9 93.0297 53.22 92.6297 55.58C92.2297 57.9 91.5897 60 90.7097 61.88C89.8297 63.76 88.6897 65.3 87.2897 66.5C85.9297 67.66 84.2697 68.24 82.3097 68.24C80.5497 68.24 79.0897 67.8 77.9297 66.92C76.8097 66 75.9097 64.86 75.2297 63.5C74.5897 62.1 74.1497 60.58 73.9097 58.94C73.6697 57.26 73.5497 55.66 73.5497 54.14C73.5497 52.74 73.6297 51.3 73.7897 49.82C73.9497 48.3 74.2297 46.9 74.6297 45.62C75.0297 44.34 75.5897 43.24 76.3097 42.32C77.0297 41.4 77.9297 40.82 79.0097 40.58C79.3697 39.58 79.8497 38.78 80.4497 38.18C81.0497 37.58 81.7097 37.14 82.4297 36.86C83.1497 36.54 83.8897 36.34 84.6497 36.26C85.4497 36.18 86.2097 36.14 86.9297 36.14ZM85.3097 65.06C85.9497 65.06 86.5697 64.44 87.1697 63.2C87.7697 61.96 88.2897 60.4 88.7297 58.52C89.1697 56.64 89.4897 54.62 89.6897 52.46C89.9297 50.26 89.9897 48.22 89.8697 46.34C89.7497 44.46 89.4297 42.9 88.9097 41.66C88.3897 40.42 87.5897 39.8 86.5097 39.8C86.0297 39.8 85.6897 40.14 85.4897 40.82C85.2897 41.5 85.1097 42.3 84.9497 43.22C84.7897 44.1 84.5897 45 84.3497 45.92C84.1097 46.84 83.7297 47.54 83.2097 48.02C83.2097 49.82 83.1497 51.72 83.0297 53.72C82.9097 55.72 82.8497 57.56 82.8497 59.24C82.8897 60.92 83.0697 62.32 83.3897 63.44C83.7497 64.52 84.3897 65.06 85.3097 65.06ZM117.87 58.58C117.87 60.34 117.97 61.8 118.17 62.96C118.41 64.08 118.59 64.98 118.71 65.66C118.87 66.3 118.91 66.76 118.83 67.04C118.75 67.32 118.41 67.46 117.81 67.46C116.85 67.46 115.87 67.3 114.87 66.98C113.91 66.62 113.03 66.06 112.23 65.3C111.47 64.54 110.83 63.56 110.31 62.36C109.83 61.16 109.59 59.72 109.59 58.04C109.59 57.6 109.59 57.14 109.59 56.66C109.59 56.18 109.61 55.66 109.65 55.1L105.09 66.56C105.21 66.88 105.31 67.16 105.39 67.4C105.51 67.64 105.57 67.92 105.57 68.24C105.57 68.52 105.35 68.7 104.91 68.78C104.47 68.86 103.91 68.8 103.23 68.6C102.55 68.44 101.83 68.14 101.07 67.7C100.31 67.22 99.59 66.56 98.91 65.72C98.23 64.84 97.67 63.76 97.23 62.48C96.79 61.2 96.57 59.68 96.57 57.92C96.57 56.28 96.65 54.48 96.81 52.52C96.97 50.52 97.13 48.6 97.29 46.76C97.49 44.92 97.67 43.28 97.83 41.84C97.99 40.4 98.07 39.42 98.07 38.9C98.07 38.54 97.99 38.18 97.83 37.82C97.71 37.42 97.61 37.06 97.53 36.74C97.49 36.42 97.55 36.16 97.71 35.96C97.91 35.76 98.35 35.66 99.03 35.66C99.83 35.66 100.63 35.78 101.43 36.02C102.27 36.22 103.03 36.5 103.71 36.86C104.39 37.22 104.95 37.64 105.39 38.12C105.83 38.6 106.05 39.1 106.05 39.62C106.05 40.18 105.93 41.02 105.69 42.14C105.45 43.26 105.19 44.6 104.91 46.16C104.63 47.72 104.37 49.48 104.13 51.44C103.89 53.36 103.77 55.38 103.77 57.5C103.77 59.3 103.83 60.76 103.95 61.88C104.07 63 104.23 63.92 104.43 64.64C104.71 63.96 105.09 63.06 105.57 61.94C106.05 60.82 106.53 59.62 107.01 58.34C107.53 57.02 108.05 55.68 108.57 54.32C109.09 52.92 109.53 51.62 109.89 50.42C109.97 49.3 110.03 48.3 110.07 47.42C110.11 46.54 110.13 45.94 110.13 45.62C110.13 45.06 110.23 44.48 110.43 43.88C110.63 43.28 111.09 42.98 111.81 42.98C112.17 42.98 112.73 43.02 113.49 43.1C114.29 43.18 115.07 43.36 115.83 43.64C116.63 43.88 117.33 44.24 117.93 44.72C118.53 45.16 118.83 45.74 118.83 46.46C118.83 46.94 118.77 47.44 118.65 47.96C118.57 48.44 118.47 49.1 118.35 49.94C118.23 50.78 118.11 51.88 117.99 53.24C117.91 54.6 117.87 56.38 117.87 58.58ZM149.55 38.36C149.55 38.84 149.47 39.56 149.31 40.52C149.15 41.48 148.95 42.58 148.71 43.82C148.51 45.06 148.27 46.38 147.99 47.78C147.75 49.18 147.51 50.54 147.27 51.86C147.07 53.18 146.89 54.42 146.73 55.58C146.57 56.74 146.49 57.7 146.49 58.46C146.49 60.74 146.55 62.48 146.67 63.68C146.79 64.84 146.91 65.72 147.03 66.32C147.19 66.92 147.33 67.36 147.45 67.64C147.57 67.92 147.63 68.28 147.63 68.72C147.63 69.16 147.15 69.38 146.19 69.38C145.27 69.38 144.23 69.04 143.07 68.36C141.95 67.68 140.91 66.6 139.95 65.12C139.03 63.6 138.57 61.58 138.57 59.06C138.57 57.38 138.63 55.66 138.75 53.9C138.91 52.1 139.09 50.36 139.29 48.68C139.49 46.96 139.71 45.34 139.95 43.82C140.23 42.3 140.47 40.96 140.67 39.8C140.23 40.92 139.73 42.3 139.17 43.94C138.65 45.54 138.09 47.28 137.49 49.16C136.93 51 136.35 52.88 135.75 54.8C135.19 56.68 134.63 58.46 134.07 60.14C133.51 61.78 132.97 63.24 132.45 64.52C131.97 65.8 131.53 66.72 131.13 67.28C131.09 67.56 130.93 67.76 130.65 67.88H130.47C130.23 67.96 129.99 68 129.75 68C128.31 68 127.11 67.5 126.15 66.5C125.19 65.46 124.41 64.18 123.81 62.66C123.21 61.14 122.77 59.48 122.49 57.68C122.21 55.88 122.01 54.2 121.89 52.64C121.81 51.04 121.77 49.7 121.77 48.62C121.81 47.5 121.83 46.86 121.83 46.7C121.83 46.42 121.81 46.24 121.77 46.16C121.69 46.04 121.61 45.94 121.53 45.86C121.41 45.74 121.33 45.64 121.29 45.56C121.21 45.44 121.17 45.24 121.17 44.96C121.17 44.68 121.63 44.46 122.55 44.3C123.47 44.14 124.47 44.12 125.55 44.24C126.67 44.32 127.69 44.6 128.61 45.08C129.53 45.52 129.99 46.22 129.99 47.18C129.99 47.5 129.97 48.1 129.93 48.98C129.93 49.82 129.91 50.76 129.87 51.8C129.83 52.8 129.79 53.78 129.75 54.74C129.75 55.7 129.75 56.42 129.75 56.9C129.75 57.7 129.77 58.44 129.81 59.12C129.89 59.8 129.97 60.44 130.05 61.04C130.41 59.76 130.85 58.3 131.37 56.66C131.93 55.02 132.51 53.32 133.11 51.56C133.75 49.76 134.43 47.98 135.15 46.22C135.87 44.46 136.59 42.84 137.31 41.36C138.07 39.84 138.83 38.54 139.59 37.46C140.35 36.38 141.09 35.64 141.81 35.24C141.89 35.16 142.05 35.08 142.29 35C142.41 34.96 142.51 34.94 142.59 34.94C142.71 34.9 142.83 34.88 142.95 34.88C143.15 34.88 143.33 34.88 143.49 34.88C143.69 34.88 143.89 34.9 144.09 34.94C145.01 34.94 145.57 35.04 145.77 35.24C146.73 35.52 147.59 35.94 148.35 36.5C149.15 37.02 149.55 37.64 149.55 38.36ZM178.052 74C179.892 74.84 181.312 76 182.312 77.48C183.352 78.96 184.072 80.48 184.472 82.04C184.912 83.6 185.092 85.08 185.012 86.48C184.972 87.88 184.792 88.94 184.472 89.66C183.832 91.02 182.612 92.48 180.812 94.04C179.052 95.64 176.932 97.18 174.452 98.66C172.012 100.18 169.312 101.58 166.352 102.86C163.432 104.14 160.492 105.14 157.532 105.86C154.572 106.58 151.712 106.94 148.952 106.94C146.192 106.98 143.752 106.5 141.632 105.5C140.952 105.18 140.092 104.58 139.052 103.7C138.012 102.82 137.032 101.8 136.112 100.64C135.152 99.52 134.412 98.32 133.892 97.04C133.332 95.8 133.232 94.66 133.592 93.62C133.992 92.5 134.772 91.52 135.932 90.68C137.092 89.84 138.432 89.14 139.952 88.58C141.432 88.06 142.992 87.64 144.632 87.32C146.232 87 147.692 86.78 149.012 86.66C150.332 86.58 151.392 86.6 152.192 86.72C153.032 86.84 153.392 87.02 153.272 87.26C153.152 87.5 152.732 87.72 152.012 87.92C151.332 88.12 150.492 88.32 149.492 88.52C148.492 88.76 147.392 89.04 146.192 89.36C144.992 89.68 143.832 90.08 142.712 90.56C141.592 91.04 140.572 91.64 139.652 92.36C138.692 93.08 137.972 93.94 137.492 94.94C136.972 96.02 137.132 96.88 137.972 97.52C138.812 98.2 140.092 98.68 141.812 98.96C143.532 99.28 145.612 99.4 148.052 99.32C150.452 99.24 152.992 98.98 155.672 98.54C158.352 98.14 161.052 97.56 163.772 96.8C166.532 96.04 169.092 95.14 171.452 94.1C173.812 93.06 175.872 91.86 177.632 90.5C179.392 89.14 180.652 87.66 181.412 86.06C181.892 85.02 181.912 83.92 181.472 82.76C181.032 81.6 179.992 80.64 178.352 79.88C176.152 78.84 173.792 78.24 171.272 78.08C168.792 77.92 166.412 77.98 164.132 78.26C163.932 78.58 163.752 78.74 163.592 78.74C163.352 78.74 163.152 78.62 162.992 78.38C161.632 78.58 160.352 78.8 159.152 79.04C157.952 79.32 156.892 79.56 155.972 79.76C155.052 79.96 154.292 80.12 153.692 80.24C153.092 80.36 152.712 80.38 152.552 80.3C152.312 80.18 152.052 79.92 151.772 79.52C151.492 79.16 151.252 78.68 151.052 78.08C150.812 77.52 150.692 76.9 150.692 76.22C150.652 75.54 150.792 74.86 151.112 74.18C151.632 73.1 152.872 72.34 154.832 71.9C156.832 71.46 159.112 71.24 161.672 71.24V70.88C161.672 70.48 161.672 70.04 161.672 69.56C161.672 69.12 161.692 68.62 161.732 68.06H161.672C160.632 68.06 159.512 67.8 158.312 67.28C157.112 66.72 156.012 65.84 155.012 64.64C154.012 63.44 153.172 61.9 152.492 60.02C151.852 58.14 151.532 55.86 151.532 53.18C151.532 51.78 151.752 50.3 152.192 48.74C152.632 47.14 153.192 45.58 153.872 44.06C154.552 42.5 155.312 41 156.152 39.56C157.032 38.12 157.892 36.86 158.732 35.78C159.612 34.7 160.432 33.84 161.192 33.2C161.992 32.56 162.652 32.24 163.172 32.24C164.452 32.24 165.472 32.48 166.232 32.96C167.032 33.4 167.632 33.94 168.032 34.58C168.472 35.22 168.752 35.86 168.872 36.5C168.992 37.1 169.052 37.56 169.052 37.88C169.052 38.12 168.772 38.46 168.212 38.9C167.652 39.34 166.952 39.96 166.112 40.76C165.272 41.52 164.352 42.46 163.352 43.58C162.352 44.66 161.432 45.96 160.592 47.48C159.752 48.96 159.052 50.68 158.492 52.64C157.932 54.56 157.652 56.74 157.652 59.18C157.652 61.66 158.072 63.36 158.912 64.28C159.752 65.2 160.752 65.5 161.912 65.18C161.952 64.3 162.012 63.44 162.092 62.6C162.212 61.72 162.312 60.96 162.392 60.32C162.472 59.64 162.572 59.1 162.692 58.7C162.812 58.3 162.932 58.1 163.052 58.1C163.732 58.1 164.292 58.48 164.732 59.24C165.212 60 165.592 60.96 165.872 62.12C167.192 60.44 168.332 58.24 169.292 55.52C170.252 52.76 170.732 49.58 170.732 45.98C170.732 45.62 170.932 45.42 171.332 45.38C171.732 45.3 172.172 45.4 172.652 45.68C173.172 45.92 173.632 46.38 174.032 47.06C174.432 47.7 174.632 48.58 174.632 49.7C174.632 50.58 174.432 51.78 174.032 53.3C173.672 54.78 173.132 56.34 172.412 57.98C171.692 59.58 170.812 61.16 169.772 62.72C168.732 64.24 167.552 65.48 166.232 66.44C166.232 67.12 166.192 67.88 166.112 68.72C166.032 69.6 165.932 70.5 165.812 71.42C167.052 71.54 168.272 71.68 169.472 71.84C170.672 72 171.812 72.2 172.892 72.44C173.972 72.68 174.952 72.92 175.832 73.16C176.712 73.44 177.452 73.72 178.052 74Z" fill="#FF414D"/>
<path d="M180.715 27.68C180.715 27.32 180.655 26.94 180.535 26.54C180.415 26.14 180.375 25.78 180.415 25.46C180.455 25.14 180.635 24.88 180.955 24.68C181.275 24.44 181.875 24.32 182.755 24.32C184.075 24.32 185.275 24.54 186.355 24.98C187.475 25.42 188.435 25.96 189.235 26.6C190.075 27.2 190.715 27.84 191.155 28.52C191.595 29.2 191.815 29.76 191.815 30.2C191.815 30.44 191.735 31.16 191.575 32.36C191.415 33.56 191.195 35.06 190.915 36.86C190.675 38.66 190.395 40.7 190.075 42.98C189.795 45.22 189.515 47.5 189.235 49.82C188.995 52.1 188.795 54.34 188.635 56.54C188.475 58.7 188.395 60.64 188.395 62.36C188.435 64.04 188.555 65.4 188.755 66.44C188.995 67.48 189.375 68 189.895 68C190.775 68 191.935 67.5 193.375 66.5C194.855 65.5 196.435 64.06 198.115 62.18C199.795 60.26 201.495 57.94 203.215 55.22C204.935 52.46 206.495 49.34 207.895 45.86C209.295 42.34 210.435 38.5 211.315 34.34C212.195 30.14 212.635 25.64 212.635 20.84C212.635 18.92 212.235 17.26 211.435 15.86C210.635 14.46 209.655 13.32 208.495 12.44C207.335 11.52 206.095 10.84 204.775 10.4C203.455 9.96 202.255 9.74 201.175 9.74C197.615 9.74 194.515 10.12 191.875 10.88C189.235 11.6 186.955 12.54 185.035 13.7C183.155 14.82 181.575 16.06 180.295 17.42C179.055 18.74 178.035 20 177.235 21.2C176.435 22.4 175.835 23.46 175.435 24.38C174.995 25.26 174.675 25.8 174.475 26C174.155 26.32 173.575 26.6 172.735 26.84C171.855 27.04 170.975 27.18 170.095 27.26C169.175 27.3 168.375 27.26 167.695 27.14C166.975 26.98 166.615 26.7 166.615 26.3C166.615 25.78 166.955 24.94 167.635 23.78C168.275 22.58 169.235 21.28 170.515 19.88C171.755 18.44 173.295 16.96 175.135 15.44C176.975 13.92 179.075 12.54 181.435 11.3C183.835 10.06 186.455 9.04 189.295 8.24C192.135 7.44 195.215 7.04 198.535 7.04C199.415 7.04 200.615 7.06 202.135 7.09999C203.695 7.14 205.375 7.34 207.175 7.7C208.975 8.02 210.795 8.56 212.635 9.32C214.475 10.08 216.135 11.18 217.615 12.62C219.135 14.06 220.355 15.92 221.275 18.2C222.235 20.44 222.715 23.22 222.715 26.54C222.715 29.86 222.315 33.3 221.515 36.86C220.715 40.38 219.595 43.84 218.155 47.24C216.715 50.6 214.995 53.8 212.995 56.84C210.995 59.84 208.775 62.48 206.335 64.76C203.895 67.04 201.275 68.84 198.475 70.16C195.715 71.48 192.855 72.14 189.895 72.14C187.695 72.14 185.875 71.54 184.435 70.34C183.035 69.18 181.915 67.62 181.075 65.66C180.235 63.66 179.635 61.4 179.275 58.88C178.955 56.36 178.775 53.76 178.735 51.08C178.735 48.4 178.835 45.74 179.035 43.1C179.235 40.46 179.455 38.06 179.695 35.9C179.935 33.74 180.155 31.94 180.355 30.5C180.595 29.02 180.715 28.08 180.715 27.68ZM250.45 49.82C250.57 49.54 250.71 49.36 250.87 49.28C251.03 49.16 251.19 49.14 251.35 49.22C251.51 49.26 251.63 49.38 251.71 49.58C251.79 49.78 251.77 50.04 251.65 50.36C251.57 50.56 251.41 51.1 251.17 51.98C250.93 52.82 250.57 53.84 250.09 55.04C249.65 56.2 249.07 57.44 248.35 58.76C247.67 60.08 246.85 61.3 245.89 62.42C244.93 63.54 243.81 64.46 242.53 65.18C241.29 65.9 239.89 66.26 238.33 66.26C236.25 66.26 234.37 65.84 232.69 65C231.05 64.16 229.65 63.08 228.49 61.76C227.37 60.44 226.51 59 225.91 57.44C225.31 55.84 225.01 54.28 225.01 52.76C225.01 50.8 225.23 48.92 225.67 47.12C226.11 45.28 226.65 43.6 227.29 42.08C227.93 40.56 228.61 39.24 229.33 38.12C230.09 37 230.77 36.16 231.37 35.6C231.97 35.08 232.75 34.7 233.71 34.46C234.67 34.18 235.63 34.04 236.59 34.04C237.59 34 238.53 34.04 239.41 34.16C240.29 34.28 240.97 34.46 241.45 34.7C242.37 35.14 243.11 36 243.67 37.28C244.27 38.52 244.57 39.98 244.57 41.66C244.57 44.82 243.91 47.22 242.59 48.86C241.27 50.46 239.63 51.26 237.67 51.26C236.95 51.26 236.19 51.18 235.39 51.02C234.63 50.86 233.93 50.68 233.29 50.48C233.17 51.96 233.29 53.42 233.65 54.86C234.01 56.3 234.49 57.58 235.09 58.7C235.73 59.82 236.45 60.74 237.25 61.46C238.09 62.14 238.93 62.48 239.77 62.48C241.05 62.48 242.19 62.2 243.19 61.64C244.19 61.04 245.07 60.3 245.83 59.42C246.63 58.54 247.29 57.58 247.81 56.54C248.37 55.5 248.83 54.52 249.19 53.6C249.59 52.64 249.87 51.82 250.03 51.14C250.23 50.42 250.37 49.98 250.45 49.82ZM239.17 39.2C238.37 39.2 237.65 39.48 237.01 40.04C236.37 40.6 235.81 41.34 235.33 42.26C234.85 43.18 234.45 44.24 234.13 45.44C233.81 46.64 233.57 47.9 233.41 49.22C234.69 49.78 235.79 49.92 236.71 49.64C237.63 49.32 238.39 48.8 238.99 48.08C239.59 47.32 240.03 46.44 240.31 45.44C240.59 44.4 240.73 43.42 240.73 42.5C240.73 41.58 240.59 40.8 240.31 40.16C240.07 39.52 239.69 39.2 239.17 39.2ZM266.362 34.34C266.482 33.9 266.882 33.82 267.562 34.1C268.282 34.34 268.982 34.94 269.662 35.9C270.342 36.86 270.822 38.2 271.102 39.92C271.422 41.64 271.262 43.76 270.622 46.28C269.942 48.8 269.142 51.32 268.222 53.84C267.342 56.32 266.502 58.56 265.702 60.56C264.742 62.92 263.762 65.16 262.762 67.28C262.642 67.68 262.382 67.9 261.982 67.94C261.622 67.94 261.182 67.82 260.662 67.58C260.542 67.78 260.282 67.88 259.882 67.88C258.682 67.88 257.342 67.24 255.862 65.96C254.382 64.68 252.982 62.82 251.662 60.38C250.382 57.9 249.282 54.88 248.362 51.32C247.482 47.72 247.042 43.62 247.042 39.02C247.042 38.74 247.022 38.4 246.982 38C246.902 37.6 246.902 37.22 246.982 36.86C247.022 36.5 247.142 36.2 247.342 35.96C247.582 35.72 248.002 35.6 248.602 35.6C250.682 35.6 252.242 36.14 253.282 37.22C254.362 38.3 254.902 39.6 254.902 41.12C254.902 45.32 255.262 49 255.982 52.16C256.742 55.28 257.522 57.94 258.322 60.14C258.762 59.06 259.282 57.82 259.882 56.42C260.522 55.02 261.142 53.62 261.742 52.22C262.382 50.78 262.942 49.42 263.422 48.14C263.942 46.82 264.322 45.7 264.562 44.78C265.162 42.54 265.562 40.82 265.762 39.62C266.002 38.42 266.142 37.5 266.182 36.86C266.262 36.22 266.282 35.76 266.242 35.48C266.202 35.16 266.242 34.78 266.362 34.34ZM272.59 43.16C272.59 40.32 272.95 37.46 273.67 34.58C274.39 31.7 275.39 28.94 276.67 26.3C277.99 23.66 279.55 21.2 281.35 18.92C283.15 16.6 285.11 14.6 287.23 12.92C289.39 11.2 291.67 9.86 294.07 8.9C296.47 7.9 298.93 7.4 301.45 7.4C303.21 7.4 304.61 7.76 305.65 8.48C306.69 9.2 307.43 10.14 307.87 11.3C308.31 12.46 308.51 13.78 308.47 15.26C308.43 16.74 308.21 18.26 307.81 19.82C307.41 21.38 306.87 22.9 306.19 24.38C305.55 25.86 304.85 27.18 304.09 28.34C303.37 29.5 302.63 30.44 301.87 31.16C301.11 31.88 300.43 32.24 299.83 32.24C299.27 32.24 299.03 31.74 299.11 30.74C299.19 29.7 299.41 28.4 299.77 26.84C300.17 25.28 300.61 23.62 301.09 21.86C301.61 20.06 301.99 18.38 302.23 16.82C302.51 15.26 302.57 13.98 302.41 12.98C302.29 11.94 301.77 11.42 300.85 11.42C298.93 11.42 296.97 12.32 294.97 14.12C293.01 15.92 291.21 18.34 289.57 21.38C287.93 24.42 286.59 27.96 285.55 32C284.51 36 283.99 40.22 283.99 44.66C283.99 48.78 284.29 52.34 284.89 55.34C285.49 58.3 286.21 60.74 287.05 62.66C287.89 64.58 288.77 66 289.69 66.92C290.65 67.84 291.49 68.3 292.21 68.3C292.69 68.3 293.19 67.94 293.71 67.22C294.27 66.46 294.83 65.52 295.39 64.4C295.95 63.24 296.49 61.98 297.01 60.62C297.53 59.22 297.99 57.88 298.39 56.6C298.79 55.32 299.11 54.18 299.35 53.18C299.59 52.18 299.71 51.48 299.71 51.08C299.71 50.48 300.01 50.16 300.61 50.12C301.21 50.08 301.87 50.28 302.59 50.72C303.35 51.12 304.03 51.72 304.63 52.52C305.23 53.28 305.53 54.2 305.53 55.28C305.53 55.44 305.45 55.96 305.29 56.84C305.17 57.72 304.91 58.76 304.51 59.96C304.15 61.12 303.65 62.38 303.01 63.74C302.37 65.06 301.55 66.3 300.55 67.46C299.55 68.58 298.35 69.5 296.95 70.22C295.55 70.98 293.91 71.36 292.03 71.36C288.67 71.36 285.75 70.68 283.27 69.32C280.83 68 278.81 66.12 277.21 63.68C275.65 61.2 274.49 58.24 273.73 54.8C272.97 51.32 272.59 47.44 272.59 43.16ZM323.063 36.14C323.943 36.14 324.763 36.36 325.523 36.8C326.283 37.24 326.943 37.96 327.503 38.96C328.063 39.96 328.503 41.26 328.823 42.86C329.183 44.42 329.363 46.34 329.363 48.62C329.363 50.9 329.163 53.22 328.763 55.58C328.363 57.9 327.723 60 326.843 61.88C325.963 63.76 324.823 65.3 323.423 66.5C322.063 67.66 320.403 68.24 318.443 68.24C316.683 68.24 315.223 67.8 314.063 66.92C312.943 66 312.043 64.86 311.363 63.5C310.723 62.1 310.283 60.58 310.043 58.94C309.803 57.26 309.683 55.66 309.683 54.14C309.683 52.74 309.763 51.3 309.923 49.82C310.083 48.3 310.363 46.9 310.763 45.62C311.163 44.34 311.723 43.24 312.443 42.32C313.162 41.4 314.063 40.82 315.143 40.58C315.503 39.58 315.983 38.78 316.583 38.18C317.183 37.58 317.843 37.14 318.563 36.86C319.283 36.54 320.023 36.34 320.783 36.26C321.583 36.18 322.343 36.14 323.063 36.14ZM321.443 65.06C322.083 65.06 322.703 64.44 323.303 63.2C323.903 61.96 324.423 60.4 324.863 58.52C325.303 56.64 325.623 54.62 325.823 52.46C326.063 50.26 326.123 48.22 326.003 46.34C325.883 44.46 325.563 42.9 325.043 41.66C324.523 40.42 323.723 39.8 322.643 39.8C322.163 39.8 321.823 40.14 321.623 40.82C321.423 41.5 321.243 42.3 321.083 43.22C320.923 44.1 320.723 45 320.483 45.92C320.243 46.84 319.863 47.54 319.343 48.02C319.343 49.82 319.283 51.72 319.163 53.72C319.043 55.72 318.983 57.56 318.983 59.24C319.023 60.92 319.203 62.32 319.523 63.44C319.883 64.52 320.523 65.06 321.443 65.06ZM360.663 38.36C360.663 38.84 360.583 39.56 360.423 40.52C360.263 41.48 360.063 42.58 359.823 43.82C359.623 45.06 359.383 46.38 359.103 47.78C358.863 49.18 358.623 50.54 358.383 51.86C358.183 53.18 358.003 54.42 357.843 55.58C357.683 56.74 357.603 57.7 357.603 58.46C357.603 60.74 357.663 62.48 357.783 63.68C357.903 64.84 358.023 65.72 358.143 66.32C358.303 66.92 358.443 67.36 358.563 67.64C358.683 67.92 358.743 68.28 358.743 68.72C358.743 69.16 358.263 69.38 357.303 69.38C356.383 69.38 355.343 69.04 354.183 68.36C353.063 67.68 352.023 66.6 351.063 65.12C350.143 63.6 349.683 61.58 349.683 59.06C349.683 57.38 349.743 55.66 349.863 53.9C350.023 52.1 350.203 50.36 350.403 48.68C350.603 46.96 350.823 45.34 351.063 43.82C351.343 42.3 351.583 40.96 351.783 39.8C351.343 40.92 350.843 42.3 350.283 43.94C349.763 45.54 349.203 47.28 348.603 49.16C348.043 51 347.463 52.88 346.863 54.8C346.303 56.68 345.743 58.46 345.183 60.14C344.623 61.78 344.083 63.24 343.563 64.52C343.083 65.8 342.643 66.72 342.243 67.28C342.203 67.56 342.043 67.76 341.763 67.88H341.583C341.343 67.96 341.103 68 340.863 68C339.423 68 338.223 67.5 337.263 66.5C336.303 65.46 335.523 64.18 334.923 62.66C334.323 61.14 333.883 59.48 333.603 57.68C333.323 55.88 333.123 54.2 333.003 52.64C332.923 51.04 332.883 49.7 332.883 48.62C332.923 47.5 332.943 46.86 332.943 46.7C332.943 46.42 332.923 46.24 332.883 46.16C332.803 46.04 332.723 45.94 332.643 45.86C332.523 45.74 332.443 45.64 332.403 45.56C332.323 45.44 332.283 45.24 332.283 44.96C332.283 44.68 332.743 44.46 333.663 44.3C334.583 44.14 335.583 44.12 336.663 44.24C337.783 44.32 338.803 44.6 339.723 45.08C340.643 45.52 341.103 46.22 341.103 47.18C341.103 47.5 341.083 48.1 341.043 48.98C341.043 49.82 341.023 50.76 340.983 51.8C340.943 52.8 340.903 53.78 340.863 54.74C340.863 55.7 340.863 56.42 340.863 56.9C340.863 57.7 340.883 58.44 340.923 59.12C341.003 59.8 341.083 60.44 341.163 61.04C341.523 59.76 341.963 58.3 342.483 56.66C343.043 55.02 343.623 53.32 344.223 51.56C344.863 49.76 345.543 47.98 346.263 46.22C346.983 44.46 347.703 42.84 348.423 41.36C349.183 39.84 349.943 38.54 350.703 37.46C351.463 36.38 352.203 35.64 352.923 35.24C353.003 35.16 353.163 35.08 353.403 35C353.523 34.96 353.623 34.94 353.703 34.94C353.823 34.9 353.943 34.88 354.063 34.88C354.263 34.88 354.443 34.88 354.603 34.88C354.803 34.88 355.003 34.9 355.203 34.94C356.123 34.94 356.683 35.04 356.883 35.24C357.843 35.52 358.703 35.94 359.463 36.5C360.263 37.02 360.663 37.64 360.663 38.36Z" fill="#1AA6B7"/>
</svg>
